<svg height="512pt" viewBox="-31 0 512 512" width="512pt" xmlns="http://www.w3.org/2000/svg"><path d="m315 512c8.289062 0 15-6.710938 15-15s-6.710938-15-15-15h-19.195312l-10-31h-121.609376l-10 31h-19.195312c-8.289062 0-15 6.710938-15 15s6.710938 15 15 15zm0 0"/><path d="m300 15c0-8.289062-6.710938-15-15-15-28.359375 0-54.914062 11.15625-75.476562 30.097656-16.339844.269532-29.523438 13.5-29.523438 29.902344 0 16.566406 13.429688 30 30 30s30-13.433594 30-30c0-5.066406-1.574219-9.621094-3.792969-13.804688 13.988281-10.375 30.984375-16.195312 48.792969-16.195312 8.289062 0 15-6.710938 15-15zm0 0"/><path d="m105 180h-75v151h390v-151h-75c-8.277344 0-15 6.722656-15 15v30c0 24.8125-20.1875 45-45 45s-45-20.1875-45-45v-30c0-8.277344-6.722656-15-15-15s-15 6.722656-15 15v30c0 24.8125-20.1875 45-45 45s-45-20.1875-45-45v-30c0-8.277344-6.722656-15-15-15zm0 0"/><path d="m435 361h-420c-8.285156 0-15 6.714844-15 15 0 24.851562 20.148438 45 45 45h360c24.851562 0 45-20.148438 45-45 0-8.285156-6.714844-15-15-15zm0 0"/><path d="m420 135c0-24.8125-20.1875-45-45-45h-113.34375c-10.40625 17.847656-29.542969 30-51.65625 30-8.574219 0-75 0-75 0-27.589844 0-52.539062-10.921875-71.296875-28.390625-19.332031 5.050781-33.703125 22.5-33.703125 43.390625v15h75c24.8125 0 45 20.1875 45 45v30c0 8.277344 6.722656 15 15 15s15-6.722656 15-15v-30c0-24.8125 20.1875-45 45-45s45 20.1875 45 45v30c0 8.277344 6.722656 15 15 15s15-6.722656 15-15v-30c0-24.8125 20.1875-45 45-45h75zm0 0"/><path d="m105 0h-30c-8.285156 0-15 6.714844-15 15 0 41.421875 33.578125 75 75 75h23.34375c-5.167969-8.859375-8.34375-19.023438-8.34375-30 0-12.828125 4.121094-24.667969 11.003906-34.429688-13.742187-15.558593-33.613281-25.570312-56.003906-25.570312zm0 0"/></svg>